Image: 
http://bayimg.com/haABBaaEd 
http://bayimg.com/GAabJAaed


IMDB: 
http://www.imdb.com/title/tt1523296/


NAME: 
HEAL (2010)


MediaInfo:
General
Complete name                            : C:MediaFilms And MoviesFilmsHero (2009) HealHero.mp4
Format                                   : MPEG-4
Format profile                           : Base Media
Codec ID                                 : isom
File size                                : 99.8 MiB
Duration                                 : 24mn 2s
Overall bit rate mode                    : Variable
Overall bit rate                         : 581 Kbps
Encoded date                             : UTC 2011-06-11 11:46:50
Tagged date                              : UTC 2011-06-12 11:46:53

Video
ID                                       : 1
Format                                   : AVC
Format/Info                              : Advanced Video Codec
Format profile                           : High@L3.1
Format settings, CABAC                   : Yes
Format settings, ReFrames                : 4 frames
Codec ID                                 : avc1
Codec ID/Info                            : Advanced Video Coding
Duration                                 : 24mn 2s
Bit rate                                 : 467 Kbps
Maximum bit rate                         : 1 634 Kbps
Width                                    : 640 pixels
Height                                   : 360 pixels
Display aspect ratio                     : 16:9
Frame rate mode                          : Constant
Frame rate                               : 29.970 fps
Color space                              : YUV
Chroma subsampling                       : 4:2:0
Bit depth                                : 8 bits
Scan type                                : Progressive
Bits/(Pixel*Frame)                       : 0.068
Stream size                              : 80.3 MiB (80%)
Writing library                          : Vimeo Encoder
Encoded date                             : UTC 2011-06-11 11:46:50
Tagged date                              : UTC 2011-06-11 11:46:52

Audio
ID                                       : 2
Format                                   : AAC
Format/Info                              : Advanced Audio Codec
Format profile                           : LC
Codec ID                                 : 40
Duration                                 : 24mn 2s
Bit rate mode                            : Variable
Bit rate                                 : 110 Kbps
Maximum bit rate                         : 174 Kbps
Channel(s)                               : 2 channels
Channel positions                        : Front: L R
Sampling rate                            : 44.1 KHz
Compression mode                         : Lossy
Stream size                              : 18.8 MiB (19%)
Encoded date                             : UTC 2011-06-11 11:46:51
Tagged date                              : UTC 2011-06-11 11:46:52